<svg xmlns="http://www.w3.org/2000/svg" viewBox="0 0 157.23 174.2">
  <path d="M72.72.17c-5.41.71-10.83,1.75-16.04,3.33-4.36,1.32-5.57,4.53-2.94,8.18,2.3,3.18,5.36,6.17,8.72,8.13,4.5,2.62,9.27,1.04,12.03-3.44,1.81-2.93,2.91-6.29,4.31-9.41.03.1.05.21.08.31l-.33-5.34c-2.11-.78-4.07-1.99-5.83-1.76ZM76.87,7.19c-.15,1-.44,1.98-.75,2.95-1.86,5.86-5.44,9.5-9.33,9.52-4.69.03-11.05-4.92-12.7-9.87-.86-2.57.47-4.71,4.25-5.63,4.58-1.11,9.29-1.71,11.97-2.19,6.32-.13,7.23.89,6.56,5.22Z" fill="black" stroke="none" />
</svg>