<svg xmlns="http://www.w3.org/2000/svg" viewBox="0 0 157.23 174.2">
  <path d="M37.13,24.61c.8.26,1.6.5,2.39.81,5.07,1.98,9.61,1.08,12.27-2.47,2.61-3.48,2.24-9.96-.74-13.67-1.43-1.79-3.13-2.16-5.06-1.01-1.94,1.15-3.74,2.53-5.71,3.64-8.17,4.59-8.31,4.84-3.56,12.42l.41.28ZM39.02,13.73c2.07-1.53,4.26-2.99,6.61-3.97,1.27-.53,3.38-.57,4.4.17,2.44,1.75,3.16,7.5,1.82,10.7-1.32,3.16-4.02,4.83-7.94,5.23-1.83-.76-4-1.13-5.41-2.37-1.65-1.45-3.47-3.61-3.6-5.57-.09-1.32,2.5-3,4.12-4.2Z" fill="black" stroke="none" />
</svg>