<svg xmlns="http://www.w3.org/2000/svg" viewBox="0 0 157.23 174.2">
  <path d="M26.95,43.46c2.99,0,5.34.13,7.67-.03,4.36-.29,6.38-2.57,6.77-6.94.42-4.74-1.04-8.68-4.45-11.94,0,0-.09,0-.09,0-5.97-2.95-10.52-2.86-13.55,1.12-1.73,2.28-3.04,5.45-3.12,8.25-.07,2.59,1.51,5.23,2.48,7.85l4.52,1.96c-.08-.09-.15-.18-.23-.28ZM24.53,25.71c3.76-3.44,10.09-2.67,13.48,1.64,2.59,3.28,2.9,7.06,2.03,10.92-.75,3.3-2.96,4.32-8.43,4.95-2.74-1.11-5.9-1.69-8.12-3.45-4.05-3.21-3.29-10.09,1.04-14.06Z" fill="black" stroke="none" />
</svg>