<svg xmlns="http://www.w3.org/2000/svg" viewBox="0 0 157.23 174.2">
  <path d="M23.98,62.11c7.67.07,8.19-2.79,8.72-6.93.29-2.26-1.15-4.86-2.2-7.13-.67-1.45-1.95-2.63-3.31-4.3l-4.52-1.96c.05.13.1.26.15.39-3.82.17-8.89-.2-10.6,4.64-2,5.63-.33,10.67,5.92,13.59-.05,0-.09,0-.14,0l6.17,2.04c-.06-.11-.13-.22-.18-.33ZM17.62,58.54c-4.32-2.06-6.02-5.88-4.83-10.68.71-2.85,3.71-4.52,8.19-4.55,4.9-.03,11.16,6.14,11.05,10.89-.12,5.18-4.65,8.15-9.75,6.33-1.59-.56-3.13-1.26-4.66-1.99Z" fill="black" stroke="none" />
</svg>