<svg xmlns="http://www.w3.org/2000/svg" viewBox="0 0 157.23 174.2">
  <path d="M7.56,100.87c3.72,2.28,7.83,4.1,11.98,5.47,4.51,1.49,7.81.29,9.19-2.79,1.24-2.77,2.32-5.66,3.03-8.6,1.42-5.93.29-8.56-4.85-12.04-1.71-1.15-3.59-2.04-5.93-3.34.15-.05.3-.1.45-.15l-6.43-.78c-5.44,1.05-6.79,1.9-8.96,5.12-3.83,5.7-3.3,14.17,1.53,17.13ZM6.52,85.16c2.22-4.31,5.28-6.23,9.91-5.07,3.86.97,7.73,2.53,11.1,4.62,4.23,2.62,4.7,5.51,2.97,11.32-.64,2.15-1.46,4.26-2.3,6.34-1.1,2.69-2.48,3.36-7.67,3.29-4.09-1.15-9.36-2.89-13.61-6.54-3.19-2.74-3.11-8.71-.39-13.96Z" fill="black" stroke="none" />
</svg>