<svg xmlns="http://www.w3.org/2000/svg" viewBox="0 0 157.23 174.2">
  <path d="M22.35,136.64c7.1-2.58,11.16-12.42,7.39-18.42-3.2-5.09-7.45-9.18-13.5-10.7-9.38-2.36-16.58,1.54-16.04,11.33.1,1.92,0,3.85-.16,5.77-.31,3.72,1.46,6.38,4.43,8.17,2.85,1.71,5.93,3.03,8.85,4.49-.11.08-.2.15-.31.23h6.35c1.16-.32,2.1-.54,2.99-.87ZM17.28,137.16c-3.81-1.52-7.75-2.76-11.38-4.63-4.13-2.13-5.82-5.79-4.88-10.51.2-.99.18-2.03.16-3.04-.17-9.6,6.3-12.26,13.88-10.76,6.58,1.3,11.23,5.74,14.36,11.43,3.72,6.76-3.47,16.67-11.8,16.64-.11.28-.22.57-.34.85Z" fill="black" stroke="none" />
</svg>