<svg xmlns="http://www.w3.org/2000/svg" viewBox="0 0 157.23 174.2">
  <path d="M87.9,20.3c5.32,1.57,12.2-2.19,15.47-8.43,2.12-4.04,1.38-6.94-2.97-8.28-5.12-1.59-10.46-2.46-15.75-3.42-2.54-.46-4.95.05-5.59,1.95-.17-.06-.33-.12-.5-.18l.33,5.34c.29,1.09.54,2.39,1.05,3.59,1.66,3.97,3.25,8.05,7.96,9.45ZM87.34,1.86c2.44.44,6.92.99,11.25,2.12,5.33,1.39,6.48,4.47,2.93,8.58-2.33,2.7-5.53,4.75-8.61,6.66-2.48,1.54-5.19.58-7.19-1.23-3.97-3.59-5.82-8.24-5.65-13.58.08-2.34.91-2.65,7.28-2.55Z" fill="black" stroke="none" />
</svg>