<svg xmlns="http://www.w3.org/2000/svg" viewBox="0 0 157.23 174.2">
  <path d="M104.3,21.06c1.38,3.45,4.75,5.69,8.93,5.34,2.27-.19,4.48-1.21,6.72-1.86l.04-.03s.02-.02.02-.02c.75-.98,1.56-1.92,2.22-2.96,2.06-3.22,1.68-5.45-1.45-7.48-3.11-2.02-6.26-4.05-9.6-5.62-1.23-.58-3.44-.4-4.55.37-2.79,1.93-3.82,8.56-2.34,12.26ZM107.33,9.59c.94-.62,2.85-.55,3.95-.02,2.93,1.42,5.69,3.22,8.47,4.94,3.37,2.08,3.88,4.41.96,7.12-2.1,1.96-4.95,3.11-7.46,4.62-.17-.28-.33-.56-.5-.84-3.79-.04-6.32-1.75-7.55-5.12-1.21-3.34-.29-9.11,2.13-10.7Z" fill="black" stroke="none" />
</svg>