<svg xmlns="http://www.w3.org/2000/svg" viewBox="0 0 157.23 174.2">
  <path d="M115.72,36.6c.43,4.34,2.45,6.61,6.86,6.86,2.57.15,5.15.03,7.17.03l3.77-1.61s-.02,0-.03,0c.66-.73,1.05-1.12,1.4-1.55,2.79-3.38,3.06-8.1.71-12.4-2.08-3.82-5.85-5.89-10.17-5.24-1.85.28-3.6,1.18-5.4,1.8l-.04.03s-.02.03-.02.03c-3.11,3.42-4.72,7.31-4.25,12.06ZM126.75,23.58c5.3-.04,9.48,4.66,9.46,10.62-.02,5.24-4.11,8.25-11.32,8.31-6.04.05-8.1-1.79-8.13-7.25-.04-6.69,4.19-11.63,9.99-11.67Z" fill="black" stroke="none" />
</svg>