<svg xmlns="http://www.w3.org/2000/svg" viewBox="0 0 157.23 174.2">
  <path d="M129.91,43.49c-1.61,2.53-3.88,5.26-5.23,8.39-2.13,4.93,1.52,9.99,6.85,10.08.71.01,1.43.09,2.47.16,0,0,0,0,0,.01l3.85-1.33c-.28.02-.55.03-.84.06,6.33-1.99,9.66-5.97,8.29-12.67-1.3-6.33-7.01-5.4-11.76-6.3l-3.77,1.61c.05,0,.11,0,.16,0ZM138.83,43.5c4.4.96,5.87,2.85,5.71,7.98.17,3.33-1.9,5.77-5.35,7.17-2.17.88-4.38,1.88-6.66,2.26-4.29.72-7.75-2.71-7.47-7.01.42-6.23,7.7-11.73,13.77-10.4Z" fill="black" stroke="none" />
</svg>