<svg xmlns="http://www.w3.org/2000/svg" viewBox="0 0 157.23 174.2">
  <path d="M135.92,79.79c-1.77.94-3.59,1.77-5.27,2.83-5.62,3.54-6.88,6.51-5.24,12.82.68,2.61,1.73,5.15,2.77,7.65,1.01,2.43,2.91,3.59,5.62,3.56,6.67-.09,12.24-3.01,17.19-7.04,1.43-1.17,2.5-3.81,2.35-5.66-.28-3.5-1.19-7.07-2.53-10.33-1.49-3.64-5.06-4.72-9.54-5.06l-5.44,1.08c.03.05.05.1.09.15ZM142.48,79.73c4.83-.35,9.08,4.4,9.94,10.66.11.78.09,1.58.13,2.38.18,3.36-1.1,6.05-4.04,7.65-4.64,2.53-9.17,5.73-14.77,5.13-1.67-.18-3.78-1.61-4.62-3.08-1.42-2.5-1.92-5.5-2.92-8.25-1.48-4.06.1-6.91,3.22-9.46,3.84-3.13,8.27-4.67,13.05-5.02Z" fill="black" stroke="none" />
</svg>