<svg xmlns="http://www.w3.org/2000/svg" viewBox="0 0 157.23 174.2">
  <path d="M157.11,122.57c-.27-2.01-.12-4.07-.26-6.1-.38-5.55-4.09-9.05-9.6-9.52-4.75-.41-9.11.66-12.72,3.58-9.17,7.41-11.1,12.27-5.73,20.93,1.79,2.89,5.4,4.65,8.04,6.76l7.27-1.28c1.95-.76,3.73-1.37,5.41-2.18,5.08-2.44,8.4-6,7.58-12.19ZM128.44,129.2c-2.32-4.53-2.15-8.82,1.41-12.82,4.43-4.98,9.3-8.81,16.5-8.46,5.53.27,9.05,3.38,9.52,8.92.19,2.25.36,4.5.46,6.75.17,3.55-1.21,6.37-4.15,8.38-3.89,2.66-8.1,4.37-13.47,4.37-4.88.4-8.03-2.75-10.28-7.14Z" fill="black" stroke="none" />
</svg>