<svg xmlns="http://www.w3.org/2000/svg" viewBox="0 174.2 157.23 174.2">
  <path d="M111.06,326.28c-3-.86-6.17-1.39-9.29-1.52-3.32-.14-5.6,2.07-5.77,5.4-.12,2.31.38,4.66.64,7.35-.06-.06-.11-.11-.16-.16.64,1.11,1.25,2.27,1.76,3.41.02-.04.05-.08.07-.13,3.6,2.94,5.73,3.12,8.91-.11,2.42-2.46,4.5-5.37,6.2-8.38,1.58-2.8.64-5.01-2.35-5.86ZM112.42,331.8c-2.18,3.21-4.57,6.36-7.36,9.03-2.13,2.05-4.43,1.37-5.74-1.32-1.21-2.48-1.99-5.18-2.52-6.62.12-5.31,2.13-7.37,6.17-7.15,2.43.13,4.85.73,7.24,1.3,2.63.63,3.77,2.46,2.21,4.76Z" fill="black" stroke="none" />
</svg>