<svg xmlns="http://www.w3.org/2000/svg" viewBox="0 174.2 157.23 174.2">
  <path d="M128.6,287.18c-.96-.44-1.9-.94-2.84-1.41-.04,0-.09-.02-.13-.03-.88-.02-1.78.03-2.65-.08-7.01-.92-10.62,2.16-10.54,9.13.04,3.58,2.01,6.14,4.71,8.24,1.01.79,2.05,1.56,3.07,2.33-.03,0-.06.01-.1.02,1.7.32,3.78.93,6.07,2.05,0,0,0-.01-.01-.01,2.16-1.32,4.77-2.07,5.99-3.8,4.47-6.37,4.42-12.82-3.56-16.43ZM131.29,302.96c-1.88,2.61-4.65,2.84-7.63,2.16-5.63-1.28-10.29-6.11-10.22-10.72.09-6.1,3.51-8.98,9.45-7.8,4.35.86,8.77,1.78,10.66,6.61,1.46,3.72-.19,6.88-2.26,9.75Z" fill="black" stroke="none" />
</svg>