<svg xmlns="http://www.w3.org/2000/svg" viewBox="0 174.2 157.23 174.2">
  <path d="M117.84,275.62c-.29,4.81,2.32,7.53,6.4,9.29.5.22.96.55,1.44.82l-.1-.07c1.92,0,3.85.08,5.76,0,3.9-.15,6-2.4,7.31-5.96,1.18-3.21.51-5.82-1.81-8.02-1.8-1.71-3.87-3.12-6-4.81.1.01.19.02.29.03-2.07-.55-4.03-.94-5.7-1.21-5.74,2.01-7.25,4.21-7.59,9.92ZM134.49,270.94c2.54,1.7,4.63,4.02,3.35,7.67-1.55,4.46-3.49,5.98-8.12,6.08-7.04.3-12.98-4.48-10.23-12.7,1.14-3.41,3.67-5.49,7.11-4.59,2.76.73,5.52,1.95,7.9,3.54Z" fill="black" stroke="none" />
</svg>