<svg xmlns="http://www.w3.org/2000/svg" viewBox="0 174.2 157.23 174.2">
  <path d="M140.02,242.16c6.91-2.46,10.13-12.26,5.67-18.05-3.9-5.06-9.14-8.08-15.74-7.5-1.71.15-3.87,1.18-4.84,2.51-1.95,2.7-3.57,5.76-4.72,8.9-2.48,6.76-.82,10.01,5.89,12.68.81.32,1.62.68,3.24,1.36-.21.05-.4.1-.6.16,2.33.11,4.9.39,7.55.95,1.5-.42,2.55-.66,3.54-1.02ZM124.54,238.84c-4.21-1.83-5.27-4.9-3.28-10.25,1.27-3.41,3.36-6.59,5.51-9.57,1.72-2.39,8.48-1.99,11.71.31,1.19.84,2.35,1.72,3.53,2.56,4.3,3.05,5.76,7.51,4.08,12.51-1.64,4.87-5.29,7.42-10.69,7.88-3.63-1.12-7.4-1.93-10.86-3.44Z" fill="black" stroke="none" />
</svg>