<svg xmlns="http://www.w3.org/2000/svg" viewBox="0 174.2 157.23 174.2">
  <path d="M67.68,330.88c-2,1.92-3.95,3.9-6.57,6.5.01-.1.03-.19.04-.28-.51,1.16-1.05,2.37-1.6,3.58,2.5,4.82,10.5,8.76,15.46,7.45,1.17-.31,2.9-1.81,2.89-2.75-.03-4.24.02-8.66-1.14-12.68-1.3-4.54-5.63-5.12-9.08-1.82ZM68.78,346.45c-1.85-.63-3.64-1.64-5.25-2.76-3.11-2.17-3.29-3.35-.84-6.19,1.91-2.21,4.01-4.28,6.19-6.22,2.65-2.36,5.36-1.84,6.75,1.49,1,2.42,1.3,5.14,1.91,7.72-.38,7.04-2.03,8.26-8.76,5.96Z" fill="black" stroke="none" />
</svg>