<svg xmlns="http://www.w3.org/2000/svg" viewBox="0 174.2 157.23 174.2">
  <path d="M61.78,332.42c.33-5.33-2.02-7.92-7.33-7.7-2.56.11-5.17.62-7.61,1.41-3.21,1.04-4.22,3.48-2.5,6.44,1.63,2.8,3.64,5.48,5.9,7.79,3.29,3.36,5.48,3.28,9.25.23.01.03.04.06.05.09.54-1.21,1.08-2.42,1.6-3.58.31-2.16.56-3.42.63-4.68ZM60.68,332.65c-.5,3.41-.99,7.49-4.6,8.88-3.68,1.42-5.74-2.24-7.55-4.57-1.75-2.27-2.51-5.31-3.7-8.01,2.74-1.08,5.47-2.18,8.22-3.22.4-.15.9-.02,1.35-.02,4.78-.05,6.97,2.16,6.27,6.94Z" fill="black" stroke="none" />
</svg>