<svg xmlns="http://www.w3.org/2000/svg" viewBox="0 174.2 157.23 174.2">
  <path d="M36.92,305.88c7.93-6.59,9.59-9.82,7.64-15.61-1.93-5.73-6.8-5.13-11.63-4.86.17-.08.33-.16.49-.24-1.07.24-2.23.51-3.33.77.13,0,.26-.01.39-.02-4.5,2.74-8.74,5.2-7.76,11.13.84,5.05,3.07,8.98,8.19,9.66,1.92.01,4.33-.17,7.06-.77-.35-.02-.69-.04-1.05-.06ZM28.89,304.95c-4.97-1.82-6.92-10.64-3.11-14.36,3.45-3.37,7.88-4.38,12.46-4.17,4,.19,6.19,3.63,5.92,8.4-.38,6.54-9.16,12.36-15.27,10.13Z" fill="black" stroke="none" />
</svg>