<svg xmlns="http://www.w3.org/2000/svg" viewBox="0 174.2 157.23 174.2">
  <path d="M39.82,275.56c-.57-4.59-1.49-9.02-7.61-9.55-2.14.44-4.57,1.08-6.55,1.63-4.21,3.27-8.22,5.69-6.94,11.15,1.4,5.96,5.72,7.52,11.37,7.16,1.1-.26,2.27-.53,3.33-.77,4.09-1.98,7-4.66,6.39-9.62ZM27.54,284.71c-3.88.1-5.89-1.38-7.55-5.61-1.47-3.74.51-6.06,3.08-8.15,1.04-.85,2.21-1.65,3.45-2.13,3.25-1.28,6.79-3.03,9.83-.04,2.56,2.51,3.23,6.09,2.21,9.48-1.13,3.75-4.12,5.76-8,6.3-.78.11-1.58.09-3.01.15Z" fill="black" stroke="none" />
</svg>