<svg xmlns="http://www.w3.org/2000/svg" viewBox="0 174.2 157.23 174.2">
  <path d="M32.05,265.99c7.65-5.42,8-6.42,6.62-12.8-1.19-5.46-3.95-9.33-9.81-10.95-3.45.5-5.78.79-7.33.94-6.89,3.18-10.96,7.65-9.64,14.86,1.31,7.17,6.39,9.88,14.38,9.12-.2.16-.41.32-.61.48,1.98-.55,4.41-1.19,6.55-1.63-.06,0-.1-.02-.16-.02ZM23.37,267.02c-.09-.27-.19-.54-.28-.8-4.71.35-7.71-1.98-9.54-6.1-1.9-4.3-1.15-8.66,2.07-11.53,2.78-2.48,6.69-4.43,10.36-5.01,7.51-1.18,14.54,8.07,12.04,15.29-.51,1.47-1.79,3.13-3.15,3.77-3.71,1.73-7.66,2.96-11.51,4.38Z" fill="black" stroke="none" />
</svg>