<svg xmlns="http://www.w3.org/2000/svg" viewBox="0 174.2 157.23 174.2">
  <path d="M28.19,242.06c2.21-.94,3.77-1.55,5.29-2.26,3.31-1.54,4.91-3.94,4.57-7.82-.46-5.22-2.92-9.49-6.01-13.38-.96-1.21-3.13-1.93-4.79-2.01-6.76-.34-12.08,2.79-15.68,8.26-1.28,1.95-1.62,4.97-1.36,7.4.67,6.14,4.44,9.8,11.31,10.92,0,0,0,0,0,0,1.55-.15,3.88-.43,7.33-.94-.22-.06-.43-.13-.66-.18ZM12.05,235.3c-2.03-4.94-1.5-8.88,2.08-12.05,3.64-3.22,7.6-6.2,12.82-5.67,1.68.17,3.64,1.19,4.77,2.45,3.14,3.5,5.07,7.67,5.42,12.48.19,2.54-.63,4.63-2.93,5.58-4.01,1.65-8.15,2.95-12.24,4.4-5.02-.69-8.09-2.74-9.92-7.19Z" fill="black" stroke="none" />
</svg>